<svg width="17" height="16" viewBox="0 0 17 16" fill="none" xmlns="http://www.w3.org/2000/svg">
<mask id="path-1-outside-1_1306_2940" maskUnits="userSpaceOnUse" x="1.5" y="4" width="15" height="12" fill="black">
<rect fill="white" x="1.5" y="4" width="15" height="12"/>
<path d="M14.815 5.11576C14.7656 5.01463 14.6412 4.97163 14.5372 5.01966C14.4331 5.06768 14.3889 5.1886 14.4383 5.28973C14.8661 6.1651 15.083 7.10428 15.083 8.08116C15.083 9.82098 14.3861 11.4566 13.1207 12.6869C11.8552 13.9171 10.1728 14.5946 8.38318 14.5946C7.32185 14.5946 6.30687 14.3604 5.3665 13.8986C4.58296 13.5138 3.87509 12.9736 3.30029 12.3244L4.12292 12.591C4.23215 12.6264 4.35024 12.569 4.38666 12.4628C4.42308 12.3566 4.36403 12.2418 4.25478 12.2064L2.77442 11.7267C2.7059 11.7045 2.63036 11.7183 2.5749 11.7633C2.51941 11.8084 2.49189 11.8781 2.50209 11.9476L2.74882 13.6267C2.76369 13.7278 2.85288 13.8007 2.95499 13.8007C2.9648 13.8007 2.97472 13.8 2.98473 13.7987C3.09874 13.7828 3.17794 13.6802 3.16165 13.5693L3.02399 12.6325C3.62722 13.3022 4.36414 13.8606 5.17852 14.2605C6.17771 14.7512 7.25591 15 8.38318 15C10.2841 15 12.0713 14.2803 13.4155 12.9735C14.7597 11.6667 15.5 9.92925 15.5 8.08116C15.5 7.04366 15.2695 6.04594 14.815 5.11576Z"/>
</mask>
<path d="M14.815 5.11576C14.7656 5.01463 14.6412 4.97163 14.5372 5.01966C14.4331 5.06768 14.3889 5.1886 14.4383 5.28973C14.8661 6.1651 15.083 7.10428 15.083 8.08116C15.083 9.82098 14.3861 11.4566 13.1207 12.6869C11.8552 13.9171 10.1728 14.5946 8.38318 14.5946C7.32185 14.5946 6.30687 14.3604 5.3665 13.8986C4.58296 13.5138 3.87509 12.9736 3.30029 12.3244L4.12292 12.591C4.23215 12.6264 4.35024 12.569 4.38666 12.4628C4.42308 12.3566 4.36403 12.2418 4.25478 12.2064L2.77442 11.7267C2.7059 11.7045 2.63036 11.7183 2.5749 11.7633C2.51941 11.8084 2.49189 11.8781 2.50209 11.9476L2.74882 13.6267C2.76369 13.7278 2.85288 13.8007 2.95499 13.8007C2.9648 13.8007 2.97472 13.8 2.98473 13.7987C3.09874 13.7828 3.17794 13.6802 3.16165 13.5693L3.02399 12.6325C3.62722 13.3022 4.36414 13.8606 5.17852 14.2605C6.17771 14.7512 7.25591 15 8.38318 15C10.2841 15 12.0713 14.2803 13.4155 12.9735C14.7597 11.6667 15.5 9.92925 15.5 8.08116C15.5 7.04366 15.2695 6.04594 14.815 5.11576Z" fill="black"/>
<path d="M14.815 5.11576C14.7656 5.01463 14.6412 4.97163 14.5372 5.01966C14.4331 5.06768 14.3889 5.1886 14.4383 5.28973C14.8661 6.1651 15.083 7.10428 15.083 8.08116C15.083 9.82098 14.3861 11.4566 13.1207 12.6869C11.8552 13.9171 10.1728 14.5946 8.38318 14.5946C7.32185 14.5946 6.30687 14.3604 5.3665 13.8986C4.58296 13.5138 3.87509 12.9736 3.30029 12.3244L4.12292 12.591C4.23215 12.6264 4.35024 12.569 4.38666 12.4628C4.42308 12.3566 4.36403 12.2418 4.25478 12.2064L2.77442 11.7267C2.7059 11.7045 2.63036 11.7183 2.5749 11.7633C2.51941 11.8084 2.49189 11.8781 2.50209 11.9476L2.74882 13.6267C2.76369 13.7278 2.85288 13.8007 2.95499 13.8007C2.9648 13.8007 2.97472 13.8 2.98473 13.7987C3.09874 13.7828 3.17794 13.6802 3.16165 13.5693L3.02399 12.6325C3.62722 13.3022 4.36414 13.8606 5.17852 14.2605C6.17771 14.7512 7.25591 15 8.38318 15C10.2841 15 12.0713 14.2803 13.4155 12.9735C14.7597 11.6667 15.5 9.92925 15.5 8.08116C15.5 7.04366 15.2695 6.04594 14.815 5.11576Z" stroke="black" stroke-width="0.4" mask="url(#path-1-outside-1_1306_2940)"/>
<mask id="path-2-outside-2_1306_2940" maskUnits="userSpaceOnUse" x="0.5" y="0" width="15" height="12" fill="black">
<rect fill="white" x="0.5" width="15" height="12"/>
<path d="M1.917 7.91883C1.917 6.17901 2.61389 4.54336 3.87932 3.31313C5.14474 2.0829 6.8272 1.4054 8.61679 1.4054C10.5866 1.4054 12.4227 2.22955 13.6991 3.6754L12.8771 3.40899C12.7678 3.37362 12.6497 3.43099 12.6133 3.53721C12.5769 3.64342 12.6359 3.75821 12.7452 3.79361L14.2255 4.27333C14.2471 4.28031 14.2694 4.28374 14.2915 4.28374C14.3396 4.28374 14.3871 4.26752 14.4251 4.23666C14.4806 4.19163 14.5081 4.1219 14.4979 4.05236L14.2512 2.37333C14.2349 2.2625 14.1292 2.18555 14.0153 2.20134C13.9013 2.21717 13.8221 2.31985 13.8384 2.43066L13.9759 3.36654C12.6219 1.85837 10.6889 1 8.61679 1C6.71583 1 4.92865 1.71969 3.58444 3.02646C2.24029 4.33328 1.5 6.07074 1.5 7.91883C1.5 8.95632 1.73049 9.95404 2.18502 10.8842C2.22071 10.9573 2.2955 11 2.3735 11C2.40347 11 2.43394 10.9937 2.46282 10.9803C2.56682 10.9323 2.61108 10.8114 2.56168 10.7102C2.13389 9.83488 1.917 8.8957 1.917 7.91883V7.91883Z"/>
</mask>
<path d="M1.917 7.91883C1.917 6.17901 2.61389 4.54336 3.87932 3.31313C5.14474 2.0829 6.8272 1.4054 8.61679 1.4054C10.5866 1.4054 12.4227 2.22955 13.6991 3.6754L12.8771 3.40899C12.7678 3.37362 12.6497 3.43099 12.6133 3.53721C12.5769 3.64342 12.6359 3.75821 12.7452 3.79361L14.2255 4.27333C14.2471 4.28031 14.2694 4.28374 14.2915 4.28374C14.3396 4.28374 14.3871 4.26752 14.4251 4.23666C14.4806 4.19163 14.5081 4.1219 14.4979 4.05236L14.2512 2.37333C14.2349 2.2625 14.1292 2.18555 14.0153 2.20134C13.9013 2.21717 13.8221 2.31985 13.8384 2.43066L13.9759 3.36654C12.6219 1.85837 10.6889 1 8.61679 1C6.71583 1 4.92865 1.71969 3.58444 3.02646C2.24029 4.33328 1.5 6.07074 1.5 7.91883C1.5 8.95632 1.73049 9.95404 2.18502 10.8842C2.22071 10.9573 2.2955 11 2.3735 11C2.40347 11 2.43394 10.9937 2.46282 10.9803C2.56682 10.9323 2.61108 10.8114 2.56168 10.7102C2.13389 9.83488 1.917 8.8957 1.917 7.91883V7.91883Z" fill="black"/>
<path d="M1.917 7.91883C1.917 6.17901 2.61389 4.54336 3.87932 3.31313C5.14474 2.0829 6.8272 1.4054 8.61679 1.4054C10.5866 1.4054 12.4227 2.22955 13.6991 3.6754L12.8771 3.40899C12.7678 3.37362 12.6497 3.43099 12.6133 3.53721C12.5769 3.64342 12.6359 3.75821 12.7452 3.79361L14.2255 4.27333C14.2471 4.28031 14.2694 4.28374 14.2915 4.28374C14.3396 4.28374 14.3871 4.26752 14.4251 4.23666C14.4806 4.19163 14.5081 4.1219 14.4979 4.05236L14.2512 2.37333C14.2349 2.2625 14.1292 2.18555 14.0153 2.20134C13.9013 2.21717 13.8221 2.31985 13.8384 2.43066L13.9759 3.36654C12.6219 1.85837 10.6889 1 8.61679 1C6.71583 1 4.92865 1.71969 3.58444 3.02646C2.24029 4.33328 1.5 6.07074 1.5 7.91883C1.5 8.95632 1.73049 9.95404 2.18502 10.8842C2.22071 10.9573 2.2955 11 2.3735 11C2.40347 11 2.43394 10.9937 2.46282 10.9803C2.56682 10.9323 2.61108 10.8114 2.56168 10.7102C2.13389 9.83488 1.917 8.8957 1.917 7.91883V7.91883Z" stroke="black" stroke-width="0.4" mask="url(#path-2-outside-2_1306_2940)"/>
</svg>
